<svg preserveAspectRatio="none" overflow="visible" style="display: block;" width="124" height="123" viewBox="0 0 124 123" fill="none" xmlns="http://www.w3.org/2000/svg">
<g id="Frame 33">
<rect width="124" height="123" rx="16" fill="white"/>
<path id="Vector" d="M80.957 33H80.958C82.3461 32.9988 83.7205 33.2577 85.002 33.7617C86.2832 34.2657 87.4458 35.0047 88.4238 35.9346C89.4019 36.8645 90.1759 37.9678 90.7031 39.1797C91.1644 40.2398 91.4291 41.3656 91.4873 42.5078L91.5 42.999V43C91.5012 44.3097 91.2303 45.6076 90.7031 46.8193C90.1759 48.031 89.4017 49.1337 88.4238 50.0635C87.4458 50.9934 86.2833 51.7323 85.002 52.2363C83.7205 52.7404 82.3461 52.9992 80.958 52.998H80.9561C79.5502 53.0016 78.1586 52.737 76.8633 52.2207C75.5679 51.7043 74.3955 50.9476 73.416 49.9951L73.167 49.752L72.8525 49.9014L52.7139 59.4756L52.3652 59.6416L52.4375 60.0215C52.5075 60.3887 52.5532 60.7595 52.5732 61.1318L52.585 61.5039C52.5833 61.9993 52.5372 62.4943 52.4473 62.9824L52.377 63.3594L52.7236 63.5244L72.8721 73.0986L73.1865 73.2471L73.4355 73.0049C74.4128 72.0546 75.582 71.2985 76.874 70.7822C78.166 70.266 79.5543 70.0008 80.957 70.002H80.958C82.3461 70.0008 83.7205 70.2596 85.002 70.7637C86.2833 71.2677 87.4458 72.0066 88.4238 72.9365C89.4018 73.8664 90.1759 74.969 90.7031 76.1807C91.2303 77.3924 91.5012 78.6903 91.5 80V80.001C91.5012 81.3107 91.2303 82.6085 90.7031 83.8203C90.1759 85.0322 89.4019 86.1355 88.4238 87.0654C87.4458 87.9953 86.2832 88.7343 85.002 89.2383C83.7205 89.7423 82.3461 90.0012 80.958 90H80.957C79.5681 90.0023 78.1927 89.7438 76.9102 89.2402C75.6279 88.7368 74.4643 87.9983 73.4854 87.0684C72.5063 86.1383 71.731 85.0347 71.2031 83.8223C70.6759 82.6111 70.4046 81.3141 70.4053 80.0049C70.4097 79.5075 70.4594 79.011 70.5527 78.5215L70.625 78.1426L70.2764 77.9766L50.1279 68.4023L49.8135 68.2529L49.5645 68.4951C48.5872 69.4455 47.418 70.2024 46.126 70.7188C44.8341 71.2349 43.4457 71.5002 42.043 71.499H42.042C40.6539 71.5002 39.2795 71.2414 37.998 70.7373C36.7167 70.2333 35.5542 69.4944 34.5762 68.5645C33.5981 67.6345 32.8241 66.5312 32.2969 65.3193C31.7697 64.1076 31.4988 62.8097 31.5 61.5L31.5127 61.0088C31.5709 59.8665 31.8356 58.7399 32.2969 57.6797C32.8241 56.4681 33.5983 55.3653 34.5762 54.4355C35.5542 53.5056 36.7167 52.7667 37.998 52.2627C39.2795 51.7586 40.6539 51.4998 42.042 51.501H42.043C43.4475 51.4986 44.8381 51.7639 46.1318 52.2803C47.4254 52.7966 48.5959 53.5526 49.5742 54.5039L49.8232 54.7471L50.1377 54.5977L70.2861 45.0234L70.6348 44.8574L70.5625 44.4785C70.4694 43.9903 70.4197 43.4951 70.415 42.999L70.4277 42.5078C70.4859 41.3656 70.7507 40.2398 71.2119 39.1797C71.7392 37.9678 72.5132 36.8645 73.4912 35.9346C74.4692 35.0047 75.6318 34.2658 76.9131 33.7617C78.1944 33.2577 79.569 32.9989 80.957 33Z" fill="#BF2C23" stroke="white"/>
</g>
</svg>
